<svg xmlns="http://www.w3.org/2000/svg" version="1.1" xmlns:xlink="http://www.w3.org/1999/xlink" width="512" height="512" x="0" y="0" viewBox="0 0 64 64" style="enable-background:new 0 0 512 512" xml:space="preserve" class=""><g><path d="M2 41h11v2h-3v2h8v-2h-3v-2h11a1 1 0 0 0 1-1V20a1 1 0 0 0-1-1H2a1 1 0 0 0-1 1v20a1 1 0 0 0 1 1zm1-20h22v16H3z" fill="#3a529b" opacity="1" data-original="#000000"></path><path d="m19.349 27.78.349-.193a.561.561 0 0 0 .221-.787l-.966-1.6a.619.619 0 0 0-.824-.211l-.353.2a.642.642 0 0 1-.686-.056 5.166 5.166 0 0 0-1.128-.626.593.593 0 0 1-.393-.54v-.386a.59.59 0 0 0-.6-.576h-1.935a.59.59 0 0 0-.6.576v.386a.593.593 0 0 1-.393.54 5.166 5.166 0 0 0-1.128.626.642.642 0 0 1-.686.056l-.353-.2a.619.619 0 0 0-.824.211l-.966 1.6a.561.561 0 0 0 .221.787l.349.193a.559.559 0 0 1 .3.56 4.561 4.561 0 0 0 0 1.32.559.559 0 0 1-.3.56l-.349.193a.561.561 0 0 0-.221.787l.966 1.6a.619.619 0 0 0 .824.211l.353-.2a.64.64 0 0 1 .686.056 5.166 5.166 0 0 0 1.128.626.593.593 0 0 1 .393.54v.386a.59.59 0 0 0 .6.576h1.932a.59.59 0 0 0 .6-.576v-.386a.593.593 0 0 1 .393-.54 5.166 5.166 0 0 0 1.128-.626.64.64 0 0 1 .686-.056l.353.2a.619.619 0 0 0 .824-.211l.966-1.6a.561.561 0 0 0-.221-.787l-.349-.193a.559.559 0 0 1-.3-.56 4.561 4.561 0 0 0 0-1.32.559.559 0 0 1 .303-.56zM14 31a2 2 0 1 1 2-2 2 2 0 0 1-2 2zM35 8v23h-6v2h6v23a1 1 0 0 0 1 1h7v-2h-6V33h6v-2h-6V9h6V7h-7a1 1 0 0 0-1 1zM62 1H46a1 1 0 0 0-1 1v12a1 1 0 0 0 1 1h16a1 1 0 0 0 1-1V2a1 1 0 0 0-1-1zm-9.061 10.389a1 1 0 0 1-1.414 0L49.4 9.268l1.414-1.414 1.414 1.414 4.95-4.95L58.6 5.732zM62 25H46a1 1 0 0 0-1 1v12a1 1 0 0 0 1 1h16a1 1 0 0 0 1-1V26a1 1 0 0 0-1-1zm-9.061 10.389a1 1 0 0 1-1.414 0L49.4 33.268l1.414-1.414 1.414 1.414 4.95-4.95 1.422 1.414zM62 49H46a1 1 0 0 0-1 1v12a1 1 0 0 0 1 1h16a1 1 0 0 0 1-1V50a1 1 0 0 0-1-1zm-9.061 10.389a1 1 0 0 1-1.414 0L49.4 57.268l1.414-1.414 1.414 1.414 4.95-4.95 1.422 1.414z" fill="#3a529b" opacity="1" data-original="#000000"></path></g></svg>
